<svg width="32" height="32" viewBox="0 0 32 32" fill="none" xmlns="http://www.w3.org/2000/svg">
<path d="M27.2832 4H4.49097C3.94284 4 3.5 4.429 3.5 4.96V27.04C3.5 27.571 3.94284 28 4.49097 28H27.2832C27.8314 28 28.2742 27.571 28.2742 27.04V4.96C28.2742 4.429 27.8314 4 27.2832 4ZM24.4218 11.005H22.443C20.8915 11.005 20.5911 11.719 20.5911 12.769V15.082H24.2948L23.8117 18.703H20.5911V28H16.7294V18.706H13.4995V15.082H16.7294V12.412C16.7294 9.313 18.6835 7.624 21.5387 7.624C22.9075 7.624 24.0812 7.723 24.4249 7.768V11.005H24.4218Z" fill="white"/>
</svg>
