<svg width="32" height="32" viewBox="0 0 32 32" fill="none" xmlns="http://www.w3.org/2000/svg">
<path d="M16.0013 4.00684C9.37057 4.00408 4 9.51797 4 16.3236C4 21.7053 7.35962 26.28 12.0384 27.96C12.6685 28.1225 12.572 27.6626 12.572 27.3486V25.2141C8.93353 25.652 8.78606 23.1787 8.54206 22.7656C8.04871 21.9008 6.88236 21.6805 7.23092 21.2673C8.05943 20.8294 8.90403 21.3775 9.88269 22.862C10.5905 23.9389 11.9714 23.7571 12.6712 23.5781C12.824 22.9309 13.1512 22.3525 13.6016 21.9036C9.83175 21.2095 8.26053 18.8464 8.26053 16.0371C8.26053 14.6738 8.69758 13.4207 9.55558 12.4099C9.0086 10.7436 9.60652 9.31691 9.68696 9.10484C11.2448 8.96162 12.8643 10.2506 12.9903 10.3525C13.8751 10.1074 14.8859 9.97792 16.0174 9.97792C17.1543 9.97792 18.1678 10.1129 19.0607 10.3607C19.3636 10.1239 20.8652 9.01671 22.313 9.15166C22.3908 9.36373 22.9753 10.7574 22.4605 12.4016C23.3292 13.4151 23.7716 14.6793 23.7716 16.0454C23.7716 18.8602 22.1897 21.226 18.4091 21.9091C18.7329 22.2362 18.99 22.6263 19.1654 23.0566C19.3408 23.4869 19.431 23.9489 19.4307 24.4154V27.5138C19.4521 27.7617 19.4307 28.0068 19.8329 28.0068C24.5814 26.3626 28 21.7548 28 16.3263C28 9.51797 22.6267 4.00684 16.0013 4.00684Z" fill="white"/>
</svg>
