<svg width="32" height="32" viewBox="0 0 32 32" fill="none" xmlns="http://www.w3.org/2000/svg">
<path d="M25.829 4H6.17099C4.972 4 4 4.972 4 6.17099V25.8289C4 27.028 4.972 28 6.17099 28H25.8289C27.028 28 28 27.028 28 25.8289V6.17099C28 4.972 27.028 4 25.829 4ZM11.4266 24.7232C11.4266 25.0721 11.1438 25.355 10.7948 25.355H8.10544C7.7565 25.355 7.47365 25.0721 7.47365 24.7232V13.4494C7.47365 13.1005 7.7565 12.8176 8.10544 12.8176H10.7948C11.1438 12.8176 11.4266 13.1005 11.4266 13.4494V24.7232ZM9.45014 11.7549C8.0391 11.7549 6.8952 10.611 6.8952 9.19996C6.8952 7.78892 8.0391 6.64503 9.45014 6.64503C10.8612 6.64503 12.0051 7.78892 12.0051 9.19996C12.0051 10.611 10.8612 11.7549 9.45014 11.7549ZM25.4813 24.7741C25.4813 25.0949 25.2212 25.355 24.9004 25.355H22.0145C21.6937 25.355 21.4335 25.0949 21.4335 24.7741V19.486C21.4335 18.6972 21.6649 16.0292 19.372 16.0292C17.5934 16.0292 17.2327 17.8553 17.1602 18.6749V24.7741C17.1602 25.0949 16.9002 25.355 16.5793 25.355H13.7882C13.4674 25.355 13.2073 25.0949 13.2073 24.7741V13.3985C13.2073 13.0777 13.4674 12.8176 13.7882 12.8176H16.5793C16.9001 12.8176 17.1602 13.0777 17.1602 13.3985V14.3821C17.8197 13.3924 18.7998 12.6284 20.8866 12.6284C25.5077 12.6284 25.4813 16.9457 25.4813 19.3178V24.7741Z" fill="white"/>
</svg>
